<svg xmlns="http://www.w3.org/2000/svg" version="1.1" xmlns:xlink="http://www.w3.org/1999/xlink" width="512" height="512"><svg version="1.1" xmlns="http://www.w3.org/2000/svg" width="512" height="512">
<path d="M0 0 C1.04590805 0.00222061 2.0918161 0.00444122 3.16941833 0.00672913 C4.35056717 0.00680466 5.531716 0.00688019 6.74865723 0.00695801 C8.03404892 0.01211929 9.31944061 0.01728058 10.64378357 0.02259827 C11.95193527 0.02401321 13.26008698 0.02542816 14.60787964 0.02688599 C18.09150591 0.03071042 21.57509071 0.04054005 25.05870056 0.05158997 C28.6111444 0.06180569 32.16359491 0.06638395 35.71604919 0.07142639 C42.69067564 0.0821624 49.66527449 0.09923792 56.63987732 0.12025452 C54.92578771 11.73860714 52.35230826 23.18323704 49.88597107 34.65931702 C49.42024051 36.83452498 48.95467207 39.00976767 48.48925781 41.18504333 C47.51853284 45.71900521 46.54585246 50.25254187 45.57176208 54.78578186 C44.32158065 60.60468165 43.0763568 66.42462949 41.83256435 72.24489784 C40.87460166 76.72500178 39.91404985 81.20454748 38.95269966 85.68392563 C38.49218037 87.83123451 38.03247525 89.97871817 37.57359123 92.12637711 C36.93482982 95.11400464 36.29259295 98.10086378 35.6493988 101.08753967 C35.45977066 101.97786896 35.27014252 102.86819824 35.07476807 103.7855072 C33.75414842 109.89171231 33.75414842 109.89171231 32.63987732 112.12025452 C75.20987732 112.12025452 117.77987732 112.12025452 161.63987732 112.12025452 C163.28987732 103.54025452 164.93987732 94.96025452 166.63987732 86.12025452 C168.0787304 79.25063949 169.53396007 72.3872922 171.03050232 65.53041077 C171.42474476 63.71392505 171.81876205 61.89739046 172.21257019 60.08081055 C173.02400179 56.3408564 173.83744076 52.60134725 174.65257263 48.86219788 C175.69706779 44.0705505 176.73723561 39.2779758 177.77608109 34.48510075 C178.58286145 30.76430776 179.39134844 27.04388736 180.20041656 23.32359123 C180.58517989 21.55382188 180.96952768 19.78396212 181.35344696 18.01400948 C181.88508104 15.56476398 182.4188937 13.11600378 182.95335388 10.66737366 C183.18864807 9.5806562 183.18864807 9.5806562 183.42869568 8.47198486 C184.0514132 5.62823578 184.71836064 2.88480455 185.63987732 0.12025452 C205.10987732 0.12025452 224.57987732 0.12025452 244.63987732 0.12025452 C239.15731284 26.55112505 233.63306563 52.97207132 228.01511765 79.37440872 C227.57683921 81.43528481 227.1392295 83.49630189 226.70179749 85.55735779 C225.87994339 89.42904727 225.05504927 93.30008528 224.22972107 97.17103577 C223.98223114 98.3376474 223.73474121 99.50425903 223.47975159 100.70622253 C223.25149689 101.77395905 223.02324219 102.84169556 222.78807068 103.94178772 C222.58950974 104.8740065 222.39094879 105.80622528 222.18637085 106.76669312 C221.63987732 109.12025452 221.63987732 109.12025452 220.63987732 112.12025452 C246.70987732 112.12025452 272.77987732 112.12025452 299.63987732 112.12025452 C298.51487732 122.24525452 298.51487732 122.24525452 297.70018005 126.18104553 C297.51757629 127.0732782 297.33497253 127.96551086 297.14683533 128.88478088 C296.95762512 129.78877625 296.76841492 130.69277161 296.57347107 131.62416077 C296.39755432 132.48005798 296.22163757 133.3359552 296.04039001 134.2177887 C295.3905081 137.37369812 294.73354066 140.52814512 294.07737732 143.68275452 C292.61300232 150.75712952 291.14862732 157.83150452 289.63987732 165.12025452 C263.23987732 165.12025452 236.83987732 165.12025452 209.63987732 165.12025452 C207.98987732 173.70025452 206.33987732 182.28025452 204.63987732 191.12025452 C203.19574518 198.14576224 201.73878073 205.16696205 200.24925232 212.18275452 C199.85510016 214.04649666 199.46108062 215.91026685 199.06718445 217.77406311 C198.25542995 221.61229033 197.44195655 225.45014777 196.62718201 229.28773499 C195.58240196 234.20947655 194.54242085 239.13221896 193.50367355 244.05523682 C192.69754221 247.87305541 191.88883548 251.69032487 191.07933807 255.50743103 C190.69415213 257.32538831 190.30980183 259.14352286 189.92630768 260.96183777 C189.39565149 263.476151 188.86150557 265.98969737 188.32640076 268.50306702 C188.16953796 269.24984207 188.01267517 269.99661713 187.85105896 270.76602173 C186.7541353 275.89173855 186.7541353 275.89173855 185.63987732 278.12025452 C211.70987732 278.12025452 237.77987732 278.12025452 264.63987732 278.12025452 C263.51473755 289.37165225 263.51473755 289.37165225 262.71604919 293.07923889 C262.53916565 293.91289978 262.3622821 294.74656067 262.18003845 295.60548401 C261.99147278 296.46629578 261.8029071 297.32710754 261.60862732 298.21400452 C261.41264954 299.12734558 261.21667175 300.04068665 261.01475525 300.98170471 C260.60382158 302.89140501 260.1902601 304.80054161 259.77415466 306.7091217 C259.13577213 309.63909604 258.50634235 312.57089091 257.87815857 315.50306702 C257.47633343 317.36515817 257.07400789 319.22714143 256.67112732 321.08900452 C256.48256165 321.96601013 256.29399597 322.84301575 256.09971619 323.74659729 C255.92283264 324.55504089 255.7459491 325.3634845 255.56370544 326.19642639 C255.33173462 327.26370972 255.33173462 327.26370972 255.09507751 328.35255432 C254.63987732 330.12025452 254.63987732 330.12025452 253.63987732 332.12025452 C227.23987732 332.12025452 200.83987732 332.12025452 173.63987732 332.12025452 C173.30987732 335.09025452 172.97987732 338.06025452 172.63987732 341.12025452 C172.36608478 342.74728971 172.06833862 344.37081258 171.72911072 345.98547363 C171.46417061 347.26181923 171.46417061 347.26181923 171.19387817 348.56394958 C171.00267899 349.46352386 170.8114798 350.36309814 170.61448669 351.28993225 C170.30943962 352.75012032 170.30943962 352.75012032 169.99822998 354.23980713 C169.33087959 357.42871487 168.65741748 360.61629552 167.98362732 363.80384827 C167.51633459 366.02815718 167.04933875 368.25252848 166.58262634 370.47695923 C165.60683066 375.1231933 164.62812053 379.76880062 163.64720154 384.41395569 C162.38805935 390.37734051 161.1352071 396.34202541 159.88437653 402.30715847 C158.92227952 406.89280755 157.95741227 411.47787011 156.99163818 416.06274605 C156.52839474 418.26310285 156.0658994 420.46361729 155.60415649 422.66428947 C154.96060327 425.72889214 154.31345579 428.79271324 153.66526794 431.8563385 C153.47406876 432.7700824 153.28286957 433.68382629 153.08587646 434.6252594 C152.82093636 435.87199684 152.82093636 435.87199684 152.55064392 437.1439209 C152.39800331 437.86782233 152.2453627 438.59172377 152.08809662 439.33756161 C151.63987732 441.12025452 151.63987732 441.12025452 150.63987732 443.12025452 C131.49987732 443.12025452 112.35987732 443.12025452 92.63987732 443.12025452 C93.76487732 431.87025452 93.76487732 431.87025452 94.55737305 428.12132263 C94.73507768 427.26789465 94.91278231 426.41446667 95.09587193 425.53517723 C95.28900943 424.63432207 95.48214693 423.73346691 95.68113708 422.80531311 C95.88941352 421.81288919 96.09768995 420.82046528 96.31227779 419.79796791 C96.98036355 416.62048277 97.6556475 413.44457925 98.33128357 410.26869202 C98.74773783 408.29328845 99.16371457 406.31778415 99.57920837 404.34217834 C101.11449075 397.05865093 102.65898079 389.77706684 104.20237732 382.49525452 C107.64675232 366.20150452 111.09112732 349.90775452 114.63987732 333.12025452 C72.39987732 333.12025452 30.15987732 333.12025452 -13.36012268 333.12025452 C-20.95012268 369.42025452 -28.54012268 405.72025452 -36.36012268 443.12025452 C-56.16012268 443.12025452 -75.96012268 443.12025452 -96.36012268 443.12025452 C-93.30619579 427.85062007 -90.23329765 412.59814104 -86.96949768 397.37416077 C-86.57540821 395.53139654 -86.18138716 393.68861767 -85.78742981 391.8458252 C-84.97524846 388.04878875 -84.16178493 384.25202987 -83.34742737 380.45545959 C-82.30318073 375.58627192 -81.26306198 370.716212 -80.22391891 365.84593296 C-79.41771043 362.07015823 -78.60901529 358.29491942 -77.79958344 354.51983452 C-77.41436711 352.72142329 -77.0300167 350.92282636 -76.64655304 349.1240406 C-76.11584164 346.63596789 -75.58170186 344.14865581 -75.04664612 341.66151428 C-74.88978333 340.92251892 -74.73292053 340.18352356 -74.57130432 339.4221344 C-73.47432394 334.34865703 -73.47432394 334.34865703 -72.36012268 332.12025452 C-98.43012268 332.12025452 -124.50012268 332.12025452 -151.36012268 332.12025452 C-150.68649911 324.71039523 -149.85619602 317.84209483 -148.29371643 310.63978577 C-148.11779968 309.80556091 -147.94188293 308.97133606 -147.76063538 308.11183167 C-147.11320791 305.05066966 -146.45480654 301.99183681 -145.79762268 298.93275452 C-144.33324768 292.06462952 -142.86887268 285.19650452 -141.36012268 278.12025452 C-114.96012268 278.12025452 -88.56012268 278.12025452 -61.36012268 278.12025452 C-59.71012268 269.54025452 -58.06012268 260.96025452 -56.36012268 252.12025452 C-54.91599054 245.09474679 -53.4590261 238.07354699 -51.96949768 231.05775452 C-51.57534552 229.19401238 -51.18132598 227.33024218 -50.78742981 225.46644592 C-49.97567531 221.62821871 -49.16220191 217.79036127 -48.34742737 213.95277405 C-47.30264732 209.03103248 -46.26266621 204.10829008 -45.22391891 199.18527222 C-44.41778757 195.36745362 -43.60908084 191.55018417 -42.79958344 187.733078 C-42.41439749 185.91512072 -42.03004719 184.09698618 -41.64655304 182.27867126 C-41.11589685 179.76435803 -40.58175093 177.25081166 -40.04664612 174.73744202 C-39.81135193 173.61727943 -39.81135193 173.61727943 -39.57130432 172.4744873 C-38.47438066 167.34877048 -38.47438066 167.34877048 -37.36012268 165.12025452 C-63.76012268 165.12025452 -90.16012268 165.12025452 -117.36012268 165.12025452 C-115.91637268 158.21087952 -114.47262268 151.30150452 -112.98512268 144.18275452 C-112.53346741 142.01978821 -112.08181213 139.8568219 -111.61647034 137.62831116 C-111.25242003 135.887335 -110.88832771 134.14636763 -110.52418518 132.40541077 C-110.34009094 131.5230072 -110.1559967 130.64060364 -109.96632385 129.73146057 C-109.43515851 127.19347519 -108.89851232 124.65671601 -108.36012268 122.12025452 C-108.18052002 121.26035919 -108.00091736 120.40046387 -107.81587219 119.51451111 C-107.64146606 118.69790009 -107.46705994 117.88128906 -107.28736877 117.03993225 C-107.13287262 116.30902878 -106.97837646 115.57812531 -106.81919861 114.82507324 C-106.36012268 113.12025452 -106.36012268 113.12025452 -105.36012268 112.12025452 C-102.89662968 111.99530424 -100.45975501 111.93423248 -97.99464417 111.91493225 C-97.22396606 111.90503265 -96.45328796 111.89513306 -95.65925598 111.88493347 C-93.09994121 111.85322751 -90.54060785 111.82852531 -87.98121643 111.80384827 C-86.21144109 111.78328658 -84.44167074 111.76229032 -82.67190552 111.74087524 C-78.00466449 111.68557342 -73.33737855 111.63620006 -68.6700592 111.58802795 C-63.91110722 111.53787199 -59.15222078 111.48215517 -54.39332581 111.42689514 C-45.0489807 111.31921444 -35.70457878 111.21779163 -26.36012268 111.12025452 C-26.24250863 110.55426576 -26.12489458 109.988277 -26.00371647 109.40513706 C-23.14529521 95.65099071 -20.28270945 81.89771671 -17.415452 68.14540958 C-16.02898517 61.49495404 -14.64394377 54.84420751 -13.26222229 48.19276428 C-11.92997617 41.77950945 -10.59380505 35.36708074 -9.25518608 28.95515251 C-8.74390744 26.50289193 -8.23396756 24.05035184 -7.72535896 21.59753609 C-7.01538963 18.17476371 -6.30076157 14.75299623 -5.5849762 11.33143616 C-5.37350449 10.3064502 -5.16203278 9.28146423 -4.94415283 8.22541809 C-4.65180252 6.83502068 -4.65180252 6.83502068 -4.35354614 5.41653442 C-4.10051397 4.20115037 -4.10051397 4.20115037 -3.84237003 2.96121311 C-3.12477123 0.22181043 -2.89000924 0.14725364 0 0 Z M21.63987732 165.12025452 C15.38476872 193.14949974 15.38476872 193.14949974 9.35862732 221.22572327 C9.01148637 222.87584517 8.66419179 224.52593477 8.3167572 226.17599487 C7.61005528 229.53434927 6.90465132 232.89297211 6.20042419 236.25184631 C5.29705908 240.56030765 4.3908413 244.86816346 3.4838028 249.17585278 C2.77614299 252.53750704 2.06952732 255.89938003 1.36328125 259.26133156 C1.02859461 260.85426686 0.69366675 262.4471515 0.35848999 264.03998375 C-0.1014669 266.22692891 -0.56010218 268.4141468 -1.01832581 270.60145569 C-1.40848877 272.46044746 -1.40848877 272.46044746 -1.80653381 274.35699463 C-2.39286198 276.81397945 -2.39286198 276.81397945 -2.36012268 278.12025452 C40.20987732 278.12025452 82.77987732 278.12025452 126.63987732 278.12025452 C127.86383695 274.44837563 128.92821456 271.18932215 129.71559143 267.47067261 C129.90345215 266.59168808 130.09131287 265.71270355 130.28486633 264.80708313 C130.48339203 263.86089111 130.68191772 262.9146991 130.88645935 261.93983459 C131.10132996 260.92940598 131.31620056 259.91897736 131.5375824 258.87792969 C132.24443918 255.54927682 132.9462126 252.21957613 133.64768982 248.88978577 C134.13785879 246.57379622 134.62824888 244.25785346 135.11885071 241.94195557 C136.14487133 237.09471515 137.16841142 232.24695946 138.19017029 227.39881897 C139.5016649 221.17676157 140.8190147 214.9559613 142.13817024 208.73552418 C143.1509525 203.95688634 144.16080686 199.17763352 145.16975021 194.39818382 C145.65451648 192.10341224 146.14016374 189.80882658 146.62669754 187.51442909 C147.30478232 184.31439798 147.97896633 181.11356984 148.65208435 177.91249084 C148.95594559 176.48409378 148.95594559 176.48409378 149.26594543 175.02684021 C149.4481665 174.15631516 149.63038757 173.2857901 149.81813049 172.3888855 C149.97776842 171.63251203 150.13740635 170.87613855 150.30188179 170.09684467 C150.72415369 167.9616216 150.72415369 167.9616216 150.63987732 165.12025452 C108.06987732 165.12025452 65.49987732 165.12025452 21.63987732 165.12025452 Z " fill="#EF5350" transform="translate(182.36012268066406,33.87974548339844)"></path>
</svg><style>@media (prefers-color-scheme: light) { :root { filter: none; } }
@media (prefers-color-scheme: dark) { :root { filter: none; } }
</style></svg>